# xmcd
#
# Track frame offsets:
# 150
# 13265
# 27885
# 43097
# 57529
# 68772
# 85575
# 98434
# 114559
# 131417
#
# Disc length: 1983 seconds
#
#
# Revision: 0
# Processed by: cddbd v1.5.1PL0 Copyright (c) Steve Scherf et al.
# Submitted via: FreeRIP 2.93 
#
DISCID=7b07bd0a
DTITLE=Jennings, Tillis, Bare, Reed - Old Dogs - Volume Two
DYEAR=1998
DGENRE=Country
TTITLE0=Elvis has left the building
TTITLE1=Wait until tomorrow
TTITLE2=I never expected
TTITLE3=Ever lovin' machine
TTITLE4=Slap my face
TTITLE5=Old man blues
TTITLE6=Rough on the livin'
TTITLE7=Alimony
TTITLE8=Still gonna die
TTITLE9=Time
EXTD=
EXTT0=
EXTT1=
EXTT2=
EXTT3=
EXTT4=
EXTT5=
EXTT6=
EXTT7=
EXTT8=
EXTT9=
PLAYORDER=
